<?xml version="1.0" encoding="utf-8"?>
<!-- Generator: Adobe Illustrator 16.0.0, SVG Export Plug-In . SVG Version: 6.00 Build 0)  -->
<!DOCTYPE svg PUBLIC "-//W3C//DTD SVG 1.1//EN" "http://www.w3.org/Graphics/SVG/1.1/DTD/svg11.dtd">
<svg version="1.1" id="Capa_1" xmlns="http://www.w3.org/2000/svg" xmlns:xlink="http://www.w3.org/1999/xlink" x="0px" y="0px"
	 width="26.701px" height="18.426px" viewBox="0 0 26.701 18.426" enable-background="new 0 0 26.701 18.426" xml:space="preserve">
<g>
	<path fill-rule="evenodd" clip-rule="evenodd" fill="#E2231A" d="M26.287,0.075l-2.343,0.559c-0.227,0.057-0.414,0.283-0.414,0.513
		v10.449c0,0.229,0.188,0.369,0.414,0.315l2.343-0.56c0.23-0.055,0.414-0.284,0.414-0.512V0.389
		C26.701,0.162,26.518,0.021,26.287,0.075z"/>
	<path fill-rule="evenodd" clip-rule="evenodd" fill="#E2231A" d="M26.287,12.428l-2.343,0.557
		c-0.227,0.059-0.414,0.284-0.414,0.514v2.061c0,0.229,0.188,0.37,0.414,0.314l2.343-0.56c0.23-0.054,0.414-0.284,0.414-0.511
		v-2.061C26.701,12.514,26.518,12.374,26.287,12.428z"/>
	<path fill-rule="evenodd" clip-rule="evenodd" fill="#E2231A" d="M3.103,6.913c0-0.198,0-5.825,0-5.825
		C3.108,0.852,2.93,0.614,2.706,0.552L0.412,0.014C0.19-0.047,0.004,0.093,0,0.327v8.771c0,0.228,0.205,0.457,0.435,0.514
		l6.767,1.518c0,0,0.226,0.048,0.226,0.276c0,0.227,0,5.141,0,5.141c0,0.221,0.15,0.432,0.36,0.488l5.43,1.332
		c0.365,0.077,0.365,0.077,0.729,0l5.433-1.332c0.203-0.056,0.36-0.266,0.36-0.488V2.04c0-0.227-0.186-0.37-0.412-0.32l-5.381,1.297
		c-0.364,0.079-0.364,0.079-0.729-0.001L7.84,1.719c-0.228-0.05-0.412,0.094-0.412,0.32c0,0,0,5.593,0,5.822
		S7.202,8.038,7.202,8.038S3.344,7.196,3.33,7.192S3.103,7.141,3.103,6.913z M16.415,14.711c-0.079,0.019-2.468,0.594-2.468,0.594
		c-0.364,0.08-0.364,0.08-0.729,0c0,0-2.382-0.574-2.464-0.594c-0.084-0.021-0.224-0.059-0.224-0.283c0-0.174,0-8.764,0-8.764
		c0-0.222,0.159-0.184,0.224-0.168c0.064,0.016,2.464,0.593,2.464,0.593c0.365,0.081,0.365,0.081,0.729,0.002
		c0,0,2.404-0.58,2.468-0.595c0.064-0.015,0.224-0.054,0.224,0.168c0,0,0,8.544,0,8.768C16.638,14.653,16.493,14.692,16.415,14.711z
		"/>
</g>
</svg>
