<?xml version="1.0" encoding="utf-8"?>
<!-- Generator: Adobe Illustrator 16.0.3, SVG Export Plug-In . SVG Version: 6.00 Build 0)  -->
<!DOCTYPE svg PUBLIC "-//W3C//DTD SVG 1.1//EN" "http://www.w3.org/Graphics/SVG/1.1/DTD/svg11.dtd">
<svg version="1.1" id="Capa_1" xmlns="http://www.w3.org/2000/svg" xmlns:xlink="http://www.w3.org/1999/xlink" x="0px" y="0px"
	 width="226.771px" height="70.867px" viewBox="0 0 226.771 70.867" enable-background="new 0 0 226.771 70.867"
	 xml:space="preserve">
<path fill="#FFFFFF" d="M0.677,50.271V45.63h3.37c2.051,0,3.19-0.631,3.19-4.399v-24.44c0-2.689-0.721-3.511-3.851-3.511H0.676
	V8.631h39.722v16.58h-4.46c-0.9-8.54-1.62-11.931-9.682-11.931h-10.6v13.07h3.189c3.619,0,5.239-1.891,5.239-6.979v-0.82h4.46v20.98
	h-4.46v-1.5c0-5.09-1.62-7.039-5.239-7.039h-3.189v14.64h12.04c5.54,0,7.7-3.59,8.24-12.939h4.46v17.58L0.677,50.271L0.677,50.271z"
	/>
<path fill="#FFFFFF" d="M43.647,50.271V45.63h3.85c1.68,0,2.83-0.631,2.83-2.771V15.981c0-1.88-0.79-2.7-3.189-2.7h-3.489v-4.65
	h22.02v4.649h-3.37c-2.64,0-3.55,0.631-3.55,2.83v29.58h9.811c6.199,0,7.699-3.58,8.25-13.319h4.449v17.9H43.647L43.647,50.271z"/>
<path fill="#FFFFFF" d="M93.107,50.271V45.63h3.85c1.391,0,2.59-0.5,2.59-2.141V15.41c0-1.631-1.199-2.131-2.59-2.131h-3.85V8.631
	h23.59c9.028,0,14.199,4.341,14.199,11.431c0,7.729-5.41,11.37-13.479,11.37h-9.439v12.06c0,1.641,1.5,2.141,2.881,2.141h3.85v4.641
	H93.107V50.271z M107.976,26.781h5.471c5.661,0,8.67-1.819,8.67-6.649c0-4.84-2.41-6.851-8.67-6.851h-5.471V26.781z"/>
<path fill="#FFFFFF" d="M124.156,50.271h18.78V45.63h-4.69c-1.148,0-1.93-0.26-1.93-1.131c0-0.568,0.121-0.949,0.239-1.318
	l1.979-6.29h13.66l1.989,6.29c0.119,0.369,0.238,0.939,0.238,1.51c0,0.62-0.479,0.939-1.858,0.939h-4.761v4.641h40.729V45.63h-3.49
	c-2.04,0-2.95-1.069-2.95-3.08V16.29c0-2.38,1.87-3.011,3.79-3.011h2.65V8.631h-21.298v4.649h3.371c2.35,0,3.067,1.25,3.067,2.83
	v27.261c0,1.631-0.96,2.26-3.431,2.26h-1.5c-3.188,0-5.229-0.438-6.319-3.398L150.397,8.631h-8.432l-11.489,33.601
	c-1.021,2.96-3.13,3.398-6.319,3.398L124.156,50.271L124.156,50.271z M150.457,32.251h-10.17l4.82-15.141h0.107L150.457,32.251z"/>
<path fill="#FFFFFF" d="M220.377,8.631h3.49v15.83h-4.33c-1.439-6.851-5.229-11.75-12.391-11.75c-5.602,0-7.892,1.511-7.892,5.66
	c0,9.42,26.841,2.39,26.841,19.909c0,9.99-7.461,13.25-15.891,13.25c-4.51,0-9.021-2.01-12.51-4.96l-1.32,3.7h-4.1V33.25h4.459
	c0.84,8.419,5.771,12.939,14.318,12.939c5.29,0,7.82-2.58,7.82-5.59c0-10.74-26.84-2.641-26.84-20.601
	c0-8.859,7.64-12.63,14.93-12.63c4.57,0,8.42,2.199,11.431,4.399L220.377,8.631z"/>
<polygon fill="#016CA2" points="188.656,0.001 188.656,5.241 166.717,5.241 "/>
<path fill="#FFFFFF" d="M35.507,69.412h7.46l0.29-2.802h-0.47c-0.2,1.021-0.55,2.16-2.061,2.16h-2.011
	c-0.26,0-0.409-0.142-0.409-0.358v-3.891h1.819c1.062,0,1.181,0.79,1.271,1.41h0.449v-3.41h-0.46
	c-0.029,0.682-0.279,1.352-1.271,1.352h-1.811v-3.562h2.431c1.26,0,1.46,0.76,1.688,1.88h0.44l0.02-2.5l-0.039-0.04
	c-0.131,0-1.29,0.03-1.851,0.03h-5.49v0.369c0.7,0.101,1.19,0.271,1.19,1.021v6.99c0,0.71-0.471,0.851-1.19,0.96v0.391H35.507z"/>
<path fill="#FFFFFF" d="M44.567,69.412h7.46l0.29-2.802h-0.471c-0.199,1.021-0.551,2.16-2.061,2.16h-2.01
	c-0.261,0-0.41-0.142-0.41-0.358V61.05c0-0.771,0.56-0.889,1.189-1v-0.368h-3.989v0.368c0.699,0.102,1.188,0.271,1.188,1.021v6.99
	c0,0.71-0.46,0.852-1.188,0.96L44.567,69.412L44.567,69.412z"/>
<path fill="#FFFFFF" d="M59.907,64.38v-4.108h0.779c1.359,0,2.211,0.642,2.211,2.021c0,1.33-0.66,2.09-2.051,2.09L59.907,64.38
	L59.907,64.38z M57.117,69.412h4.21v-0.391c-0.92-0.08-1.42-0.271-1.42-0.96v-3.052h1.109c1.859,0,3.521-0.889,3.521-2.799
	c0-1.609-1.28-2.529-3.14-2.529h-4.28v0.369c0.689,0.101,1.189,0.271,1.189,1.021v6.99c0,0.71-0.471,0.851-1.189,0.96V69.412z"/>
<path fill="#FFFFFF" d="M65.056,69.412h7.46l0.29-2.802h-0.471c-0.199,1.021-0.55,2.16-2.06,2.16h-2.011
	c-0.261,0-0.409-0.142-0.409-0.358v-3.891h1.818c1.062,0,1.182,0.79,1.271,1.41h0.46v-3.41h-0.471
	c-0.029,0.682-0.279,1.352-1.271,1.352h-1.81v-3.562h2.43c1.26,0,1.46,0.76,1.689,1.88h0.439l0.021-2.5l-0.04-0.04
	c-0.12,0-1.29,0.03-1.852,0.03h-5.489v0.369c0.699,0.101,1.189,0.271,1.189,1.021v6.99c0,0.71-0.47,0.851-1.189,0.96v0.391H65.056z"
	/>
<path fill="#FFFFFF" d="M76.917,64.009v-3.688h1.38c1.08,0,1.75,0.71,1.75,1.91c0,1.511-1.159,1.778-2.109,1.778H76.917z
	 M74.117,69.412h3.99v-0.391c-0.78-0.109-1.19-0.279-1.19-0.99v-3.439h1.3c0.642,0.011,1.04,0.181,1.23,1.051l0.79,3.771h2.45
	v-0.392c-0.5-0.062-0.86-0.13-0.99-0.761l-0.58-2.211c-0.2-0.92-0.95-1.59-1.88-1.719v-0.051c1.41-0.14,2.34-1.021,2.34-2.229
	c0-1.551-1.17-2.369-3.24-2.369h-4.22v0.369c0.7,0.101,1.189,0.271,1.189,1.021v6.989c0,0.71-0.46,0.851-1.189,0.96V69.412z"/>
<path fill="#FFFFFF" d="M84.627,58.691l2.721-1.46l-0.859-1.13l-2.15,2.271L84.627,58.691z M83.177,69.412h3.99v-0.391
	c-0.77-0.109-1.189-0.279-1.189-0.99v-6.98c0-0.771,0.561-0.889,1.189-1v-0.368h-3.99v0.368c0.7,0.102,1.2,0.271,1.2,1.021v6.99
	c0,0.71-0.47,0.852-1.2,0.96V69.412z"/>
<path fill="#FFFFFF" d="M92.306,68.851c-1.96,0-2.75-1.28-2.75-4.24c0-2.908,0.699-4.408,2.569-4.408c1.84,0,2.721,1.488,2.721,4.43
	C94.846,67.721,93.967,68.851,92.306,68.851z M92.277,69.531c2.56,0,4.27-2.01,4.27-5.109c0-3.01-1.648-4.858-4.409-4.858
	c-2.649,0-4.279,2.021-4.279,5.011C87.857,67.742,89.537,69.531,92.277,69.531z"/>
<path fill="#FFFFFF" d="M101.136,68.781c-0.199,0-0.37-0.029-0.37-0.279v-8.229h1.109c2.37,0,3.11,2.318,3.11,4.221
	c0,2.43-0.891,4.399-3.301,4.289L101.136,68.781L101.136,68.781z M97.957,69.412h3.83c2.9,0,4.9-2.132,4.9-4.99
	c0-2.979-1.841-4.739-4.94-4.739h-3.79v0.368c0.7,0.102,1.19,0.271,1.19,1.021v6.99c0,0.71-0.472,0.852-1.19,0.96V69.412z"/>
<path fill="#FFFFFF" d="M108.136,69.412h3.979v-0.391c-0.771-0.109-1.19-0.279-1.19-0.99v-6.98c0-0.771,0.57-0.889,1.19-1v-0.368
	h-3.979v0.368c0.689,0.102,1.189,0.271,1.189,1.021v6.99c0,0.71-0.47,0.852-1.189,0.96V69.412z"/>
<path fill="#FFFFFF" d="M117.787,69.531c0.89-0.029,1.938-0.21,2.351-0.148l0.119-2.739h-0.449c-0.198,1.83-1.069,2.21-2.181,2.21
	c-2.391,0-3.131-1.91-3.131-4.432c0-2.289,1.102-4.238,2.932-4.238c1.409,0,2,0.479,2.262,1.97h0.43l0.021-2.278
	c-1.04-0.24-1.819-0.312-2.681-0.312c-2.7,0-4.649,1.892-4.649,5.239c0,2.511,1.061,3.771,2.529,4.369
	C116.037,69.451,116.906,69.531,117.787,69.531z"/>
<path fill="#FFFFFF" d="M126.317,68.851c-1.949,0-2.74-1.28-2.74-4.24c0-2.908,0.689-4.408,2.57-4.408
	c1.829,0,2.711,1.488,2.711,4.43C128.858,67.721,127.976,68.851,126.317,68.851z M126.287,69.531c2.561,0,4.271-2.01,4.271-5.109
	c0-3.01-1.641-4.858-4.399-4.858c-2.649,0-4.279,2.021-4.279,5.011C121.877,67.742,123.547,69.531,126.287,69.531z"/>
<path fill="#FFFFFF" d="M140.457,69.541c1.431,0,2.21-0.221,2.8-0.379v-2.871c0-0.66,0.312-0.75,0.92-0.851v-0.39h-3.75v0.391
	c0.819,0.08,1.25,0.262,1.25,0.898v2.512c-0.101,0.01-0.479,0.05-0.71,0.05c-1.229,0-2.09-0.431-2.648-1.108
	c-0.789-0.791-1.102-2.012-1.102-3.381c0-2.101,1.063-4.221,3.091-4.221c1.409,0,2.13,0.391,2.438,1.96h0.431l0.011-2.278
	c-0.869-0.201-1.729-0.312-2.699-0.312c-3.261,0-4.949,2.409-4.949,5.12C135.537,67.751,137.257,69.541,140.457,69.541z"/>
<path fill="#FFFFFF" d="M145.627,69.412h7.46l0.29-2.802h-0.471c-0.199,1.021-0.549,2.16-2.061,2.16h-2.011
	c-0.261,0-0.41-0.142-0.41-0.358V61.05c0-0.771,0.562-0.889,1.19-1v-0.368h-3.99v0.368c0.699,0.102,1.189,0.271,1.189,1.021v6.99
	c0,0.71-0.472,0.852-1.189,0.96L145.627,69.412L145.627,69.412z"/>
<path fill="#FFFFFF" d="M159.217,68.851c-1.96,0-2.75-1.28-2.75-4.24c0-2.908,0.699-4.408,2.57-4.408c1.84,0,2.72,1.488,2.72,4.43
	C161.757,67.721,160.877,68.851,159.217,68.851z M159.186,69.531c2.561,0,4.271-2.01,4.271-5.109c0-3.01-1.649-4.858-4.399-4.858
	c-2.649,0-4.29,2.021-4.29,5.011C154.766,67.742,156.448,69.531,159.186,69.531z"/>
<path fill="#FFFFFF" d="M167.677,63.861v-3.59h1.103c1,0,2.06,0.238,2.06,1.84c0,1.07-0.83,1.75-2.091,1.75H167.677z
	 M167.917,68.791c-0.13,0-0.24-0.039-0.24-0.221v-4.13h0.801c1.729,0,2.479,0.899,2.479,2.222c0,1.17-0.7,2.129-2.211,2.129H167.917
	z M164.867,69.412h4.279c1.699,0,3.51-0.91,3.51-2.83c0-1.189-1.021-2.102-2.58-2.34v-0.08c1.229-0.24,2.381-0.932,2.381-2.222
	c0-1.83-1.771-2.26-3.16-2.26h-4.43v0.368c0.699,0.102,1.188,0.271,1.188,1.021v6.99c0,0.71-0.471,0.852-1.188,0.96V69.412z"/>
<path fill="#FFFFFF" d="M176.287,65.041l1.188-4.129h0.052l1.39,4.129H176.287z M173.567,69.412h2.891v-0.391
	c-0.979-0.12-1.08-0.352-1.08-0.568c0-0.262,0.101-0.621,0.15-0.75l0.56-1.979h3.051l0.84,2.438c0.029,0.08,0.069,0.229,0.069,0.381
	c0,0.238-0.479,0.391-1.029,0.479v0.391h3.592v-0.391c-0.382-0.05-0.711-0.21-0.853-0.63l-3.081-8.722h-1.579l0.04,0.222
	l-2.631,8.38c-0.159,0.5-0.479,0.7-0.938,0.75L173.567,69.412L173.567,69.412z"/>
<path fill="#FFFFFF" d="M182.987,69.412h7.461l0.289-2.802h-0.471c-0.199,1.021-0.54,2.16-2.061,2.16h-2
	c-0.271,0-0.42-0.142-0.42-0.358V61.05c0-0.771,0.561-0.889,1.188-1v-0.368h-3.989v0.368c0.699,0.102,1.199,0.271,1.199,1.021v6.99
	c0,0.71-0.471,0.852-1.199,0.96L182.987,69.412L182.987,69.412z"/>
</svg>
